<svg height="512" viewBox="0 0 74 74" width="512" xmlns="http://www.w3.org/2000/svg"><g id="Numbers"><text fill="rgb(0,0,0)" font-family="ArialMT, Arial" font-size="18" transform="translate(37.995 -1010.544)">3<tspan x="-5.005" y="124">13</tspan><tspan x="-5.005" y="248">23</tspan><tspan x="-5.005" y="372">33</tspan><tspan x="-5.005" y="496">43</tspan><tspan x="-5.005" y="620">53</tspan><tspan x="-5.005" y="744">63</tspan><tspan x="-5.005" y="868">73</tspan><tspan x="-5.005" y="992">83</tspan><tspan x="-5.005" y="1116">93</tspan><tspan x="-10.011" y="1240">103</tspan><tspan letter-spacing="-.074em" x="-9.343" y="1364">1</tspan><tspan x="-.668" y="1364">13</tspan><tspan x="-10.011" y="1488">123</tspan><tspan x="-10.011" y="1612">133</tspan><tspan x="-10.011" y="1736">143</tspan><tspan x="-10.011" y="1860">153</tspan><tspan x="-10.011" y="1984">163</tspan><tspan x="-10.011" y="2108">173</tspan><tspan x="-10.011" y="2232">183</tspan><tspan x="-10.011" y="2356">193</tspan><tspan x="-10.011" y="2480">203</tspan><tspan x="-10.011" y="2604">213</tspan><tspan x="-10.011" y="2728">223</tspan><tspan x="-10.011" y="2852">233</tspan><tspan x="-10.011" y="2976">243</tspan><tspan x="-10.011" y="3100">253</tspan><tspan x="-10.011" y="3224">263</tspan><tspan x="-10.011" y="3348">273</tspan><tspan x="-10.011" y="3472">283</tspan><tspan x="-10.011" y="3596">293</tspan></text></g><g id="Icons"><path fill="#ffdf6c" d="m71 60h-68a1 1 0 0 1 -1-1v-44a1 1 0 0 1 1-1h68a1 1 0 0 1 1 1v44a1 1 0 0 1 -1 1zm-67-2h66v-42h-66z"/><path fill="#ffdf6c" d="m61 54h-48a1 1 0 0 1 -1-1 3 3 0 0 0 -3-3 1 1 0 0 1 -1-1v-24a1 1 0 0 1 1-1 3 3 0 0 0 3-3 1 1 0 0 1 1-1h48a1 1 0 0 1 1 1 3 3 0 0 0 3 3 1 1 0 0 1 1 1v24a1 1 0 0 1 -1 1 3 3 0 0 0 -3 3 1 1 0 0 1 -1 1zm-47.1-2h46.2a5.015 5.015 0 0 1 3.9-3.9v-22.2a5.015 5.015 0 0 1 -3.9-3.9h-46.2a5.015 5.015 0 0 1 -3.9 3.9v22.2a5.015 5.015 0 0 1 3.9 3.9z"/><path fill="#ffdf6c" d="m37 46a5.006 5.006 0 0 1 -5-5h2a3 3 0 0 0 6 0c0-1.753-1.778-2.619-3.27-3.037-3.05-.855-4.73-2.617-4.73-4.963a5 5 0 0 1 10 0h-2a3 3 0 0 0 -6 0c0 1.407 1.1 2.429 3.27 3.037 3.05.855 4.73 2.617 4.73 4.963a5.006 5.006 0 0 1 -5 5z"/><path fill="#ffdf6c" d="m36 25h2v4h-2z"/><path fill="#ffdf6c" d="m36 45h2v4h-2z"/><path fill="#ffdf6c" d="m57 41a4 4 0 1 1 4-4 4 4 0 0 1 -4 4zm0-6a2 2 0 1 0 2 2 2 2 0 0 0 -2-2z"/><path fill="#ffdf6c" d="m17 41a4 4 0 1 1 4-4 4 4 0 0 1 -4 4zm0-6a2 2 0 1 0 2 2 2 2 0 0 0 -2-2z"/></g></svg>