<?xml version="1.0" encoding="iso-8859-1"?>
<!-- Generator: Adobe Illustrator 19.0.0, SVG Export Plug-In . SVG Version: 6.00 Build 0)  -->
<svg version="1.1" id="Capa_1" xmlns="http://www.w3.org/2000/svg" xmlns:xlink="http://www.w3.org/1999/xlink" x="0px" y="0px"
	 viewBox="0 0 480 480" style="enable-background:new 0 0 480 480;" xml:space="preserve">
<g>
	<g>
		<path fill="#ffdf6c" d="M240,51c-42.084,0-76.2,34.116-76.2,76.2c0,42.084,34.116,76.2,76.2,76.2c42.064-0.048,76.152-34.136,76.2-76.2
			C316.2,85.116,282.084,51,240,51z M240,187.4C240,187.4,240,187.4,240,187.4c-33.233-0.035-60.165-26.967-60.2-60.2h0
			c0-33.248,26.952-60.2,60.2-60.2c33.247,0,60.2,26.952,60.2,60.2C300.2,160.447,273.247,187.4,240,187.4z"/>
	</g>
</g>
<g>
	<g>
		<path fill="#ffdf6c" d="M287.648,305.808l59.328-84.856c18.861-26.767,28.997-58.704,29.024-91.448c-0.45-53.049-33.873-100.213-83.776-118.216
			L286.4,9.056c-29.898-11.364-62.804-12.053-93.152-1.952c-52.525,16.65-88.484,65.065-89.248,120.16v2.24
			c0.026,32.742,10.162,64.677,29.024,91.44l59.328,84.864C83.448,314.088,8,349.136,8,392c0,49.344,101.904,88,232,88
			s232-38.656,232-88C472,349.136,396.552,314.088,287.648,305.808z M146.136,211.784c-16.977-24.081-26.105-52.816-26.136-82.28
			v-2.24c0.767-48.2,32.309-90.494,78.288-104.976c26.838-8.942,55.941-8.337,82.384,1.712l5.848,2.232
			C330.201,41.9,359.516,83.1,360,129.504c-0.031,29.464-9.159,58.199-26.136,82.28L240,346.04L146.136,211.784z M240,464
			c-127.288,0-216-37.944-216-72c0-29.184,66.024-63.632,176.512-70.744c0.767-0.087,1.517-0.289,2.224-0.6l30.712,43.928
			c2.535,3.619,7.524,4.497,11.142,1.962c0.763-0.535,1.427-1.199,1.962-1.962l30.712-43.928c0.707,0.311,1.457,0.513,2.224,0.6
			C389.976,328.368,456,362.816,456,392C456,426.056,367.288,464,240,464z"/>
	</g>
</g>
<g>
</g>
<g>
</g>
<g>
</g>
<g>
</g>
<g>
</g>
<g>
</g>
<g>
</g>
<g>
</g>
<g>
</g>
<g>
</g>
<g>
</g>
<g>
</g>
<g>
</g>
<g>
</g>
<g>
</g>
</svg>
