<svg id="Icons" height="512" viewBox="0 0 74 74" width="512" xmlns="http://www.w3.org/2000/svg"><path fill="#ffdf6c" d="m58.889 51.99a1 1 0 0 1 -.833-1.552 21.839 21.839 0 0 0 1.454-2.563 1 1 0 1 1 1.8.871 23.972 23.972 0 0 1 -1.587 2.8 1 1 0 0 1 -.834.444z"/><path fill="#ffdf6c" d="m37 64a27 27 0 1 1 26.72-23.125 1 1 0 0 1 -1.979-.291 24.645 24.645 0 0 0 .259-3.584 25 25 0 1 0 -25 25 24.757 24.757 0 0 0 8.219-1.394 1 1 0 0 1 .662 1.887 26.747 26.747 0 0 1 -8.881 1.507z"/><path fill="#ffdf6c" d="m52.071 59.17a1 1 0 0 1 -.574-1.819 22.8 22.8 0 0 0 2.183-1.743 1 1 0 0 1 1.34 1.484 24.709 24.709 0 0 1 -2.376 1.9 1 1 0 0 1 -.573.178z"/><path fill="#ffdf6c" d="m32.23 47.4a3.745 3.745 0 0 1 -3.73-3.737v-13.327a3.731 3.731 0 0 1 5.6-3.231l11.535 6.665a3.73 3.73 0 0 1 0 6.46l-11.535 6.67a3.73 3.73 0 0 1 -1.87.5zm0-18.8a1.735 1.735 0 0 0 -.865.234 1.713 1.713 0 0 0 -.865 1.5v13.33a1.731 1.731 0 0 0 2.6 1.5l11.535-6.664a1.731 1.731 0 0 0 0-3l-11.535-6.663a1.737 1.737 0 0 0 -.87-.237z"/></svg>