<svg id="Layer_1" height="512" viewBox="0 0 512 512" width="512" xmlns="http://www.w3.org/2000/svg" data-name="Layer 1"><path fill="#ffdf6c" d="m420.837 140.209-57.17-1.885 55.285-55.285zm-354.165 111.591h-15.755a205.053 205.053 0 0 1 337.483-152.35l-11.236 11.236a189.269 189.269 0 0 0 -121.164-43.545c-102.761 0-186.669 82.382-189.328 184.659z"/><path fill="#ffdf6c" d="m91.164 371.068 57.17 1.886-55.285 55.286zm309.9 30.3c-38.519 38.507-90.034 59.717-145.064 59.717a204.625 204.625 0 0 1 -132.93-48.724l11.13-11.135a189.387 189.387 0 0 0 311.128-139.426h15.755a203.189 203.189 0 0 1 -60.024 139.563z"/></svg>